<svg id="Layer_1" data-name="Layer 1" xmlns="http://www.w3.org/2000/svg" viewBox="0 0 462.3 170.32"><defs><style>.cls-1{fill:#41b8ea;}.cls-2{fill:#71bf4e;}</style></defs><path class="cls-1" d="M154.07,41.21,116.68,14H70.46L33.07,41.21,18.79,85.16l14.28,44,37.39,27.16h46.22l37.39-27.16,14.28-44ZM84.93,130.56a53.7,53.7,0,1,1,53.69-53.7A53.7,53.7,0,0,1,84.93,130.56Z"/><path class="cls-2" d="M61.58,38.45,84.78,92l23.28-53.59,13,67.47h-7.28l-8.21-43.17h-.17l-20.57,45.8L64.29,62.75h-.17l-8.21,43.17H48.63Z"/><path class="cls-2" d="M178.83,90.17A11.6,11.6,0,0,0,182,98.23a10.45,10.45,0,0,0,8,3.28,9.92,9.92,0,0,0,6-1.84,15.26,15.26,0,0,0,4.33-5.17l4.92,2.82a18.35,18.35,0,0,1-6.47,7.05,17.1,17.1,0,0,1-9.21,2.49,16.92,16.92,0,0,1-6.83-1.34,15.51,15.51,0,0,1-5.28-3.72,16.17,16.17,0,0,1-3.36-5.6,20,20,0,0,1-1.15-6.83A23.09,23.09,0,0,1,174,82.26a17,17,0,0,1,3.22-5.89,14.69,14.69,0,0,1,5.2-3.94,17.92,17.92,0,0,1,13.84,0,14.05,14.05,0,0,1,5.09,3.87A17.72,17.72,0,0,1,204.48,82a21,21,0,0,1,1.09,6.83,5.83,5.83,0,0,1-.07.65v.72Zm20.6-4.91a10.49,10.49,0,0,0-3.4-6.33,9.46,9.46,0,0,0-6.58-2.56A10,10,0,0,0,182.7,79a10.25,10.25,0,0,0-3.58,6.29Z"/><path class="cls-2" d="M238.66,82.08h-.14a16.91,16.91,0,0,0-4.73-4.23A11.4,11.4,0,0,0,228,76.37a11.78,11.78,0,0,0-4.81,1,11,11,0,0,0-3.79,2.75,13.4,13.4,0,0,0-2.49,4,12.78,12.78,0,0,0-.91,4.81,13,13,0,0,0,3.26,8.89,10.71,10.71,0,0,0,8.45,3.68,12.57,12.57,0,0,0,6.21-1.48,15.37,15.37,0,0,0,4.85-4.37h.14v7.73A18.79,18.79,0,0,1,221,105.52a17.12,17.12,0,0,1-5.78-3.79A17.72,17.72,0,0,1,211.42,96a18.23,18.23,0,0,1-1.37-7,17.46,17.46,0,0,1,1.41-7,17.93,17.93,0,0,1,9.72-9.54,18.25,18.25,0,0,1,7-1.37,18.13,18.13,0,0,1,10.47,3.4Z"/><path class="cls-2" d="M253.62,46.31V75.93l.15.15A11.43,11.43,0,0,1,263.45,71a12.47,12.47,0,0,1,5.67,1.16,9.05,9.05,0,0,1,3.58,3.14,12.54,12.54,0,0,1,1.8,4.62,30.75,30.75,0,0,1,.51,5.82v20.16h-5.78V86.77a33.44,33.44,0,0,0-.22-4.19,10.19,10.19,0,0,0-.9-3.18,4.9,4.9,0,0,0-2.17-2.24,8.14,8.14,0,0,0-3.86-.79,7.88,7.88,0,0,0-4.56,1.19A7.19,7.19,0,0,0,255,80.63a13.79,13.79,0,0,0-1.09,4.08,47.49,47.49,0,0,0-.25,5.1v16.11h-5.78V46.31Z"/><path class="cls-2" d="M317,105.92h-5.78v-4.7h-.14a14.12,14.12,0,0,1-11.71,5.64,15.61,15.61,0,0,1-6.65-1.41,14.81,14.81,0,0,1-5.16-3.94,18.55,18.55,0,0,1-3.29-5.74A19.84,19.84,0,0,1,283.1,89a21.29,21.29,0,0,1,1.12-6.93,17.43,17.43,0,0,1,3.26-5.75,15.07,15.07,0,0,1,5.16-3.9,16,16,0,0,1,6.8-1.41,14.38,14.38,0,0,1,6.5,1.52,14.62,14.62,0,0,1,5.13,4.26h.14V72H317ZM295.57,77.34a10.36,10.36,0,0,0-3.51,2.71,12.69,12.69,0,0,0-3,8.53,14.29,14.29,0,0,0,3,9.14,9.81,9.81,0,0,0,8.13,3.79,10.12,10.12,0,0,0,8.34-3.72,14.1,14.1,0,0,0,3-9.14,12.77,12.77,0,0,0-3.1-8.78,10.6,10.6,0,0,0-8.31-3.5A10.42,10.42,0,0,0,295.57,77.34Z"/><path class="cls-2" d="M358.33,104.26a49.14,49.14,0,0,1-.58,8.42,15.05,15.05,0,0,1-8.67,10.66,18.2,18.2,0,0,1-7.37,1.51,17,17,0,0,1-11.89-4.26,15,15,0,0,1-4.8-11.34h5.78a9.88,9.88,0,0,0,3.1,7.44,10.93,10.93,0,0,0,7.74,2.82,11.93,11.93,0,0,0,5.41-1.09,8,8,0,0,0,3.36-3,13.18,13.18,0,0,0,1.67-4.48,31.35,31.35,0,0,0,.47-5.64v-4h-.15a14.27,14.27,0,0,1-5.16,4.12,14.93,14.93,0,0,1-6.62,1.52,15.25,15.25,0,0,1-11.77-5.31,17,17,0,0,1-3.29-5.71,21,21,0,0,1,0-13.62,18,18,0,0,1,3.33-5.78,15.64,15.64,0,0,1,5.2-4A15.46,15.46,0,0,1,340.84,71a14,14,0,0,1,6.5,1.52,14.76,14.76,0,0,1,5.06,4.26h.15V72h5.78ZM336.9,77.34a10.23,10.23,0,0,0-3.5,2.71,12.65,12.65,0,0,0-3,8.53,14.29,14.29,0,0,0,3,9.14,9.81,9.81,0,0,0,8.13,3.79,10.12,10.12,0,0,0,8.35-3.72,14.1,14.1,0,0,0,3-9.14,12.78,12.78,0,0,0-3.11-8.78,10.57,10.57,0,0,0-8.31-3.5A10.45,10.45,0,0,0,336.9,77.34Z"/><path class="cls-2" d="M377.48,105.49A18,18,0,0,1,367.94,82a18,18,0,0,1,3.83-5.78,17.5,17.5,0,0,1,5.71-3.87,17.79,17.79,0,0,1,19.58,3.87A18.06,18.06,0,0,1,402.26,89a17.91,17.91,0,0,1-24.78,16.48Zm-1.81-25.44a12.43,12.43,0,0,0-2.46,4,13.6,13.6,0,0,0-.87,4.84,12.62,12.62,0,0,0,3.4,8.92,12.12,12.12,0,0,0,17.34,0,12.57,12.57,0,0,0,3.4-8.92,13.6,13.6,0,0,0-.87-4.84,12.41,12.41,0,0,0-2.45-4,12.23,12.23,0,0,0-17.49,0Z"/><path class="cls-2" d="M416,76.08h.14A11.46,11.46,0,0,1,425.82,71a12.47,12.47,0,0,1,5.67,1.16,9.05,9.05,0,0,1,3.58,3.14,12.72,12.72,0,0,1,1.8,4.62,30.75,30.75,0,0,1,.51,5.82v20.16H431.6V86.77a33.44,33.44,0,0,0-.22-4.19,10.19,10.19,0,0,0-.9-3.18,4.9,4.9,0,0,0-2.17-2.24,8.17,8.17,0,0,0-3.86-.79,7.88,7.88,0,0,0-4.56,1.19,7.19,7.19,0,0,0-2.56,3.07,13.79,13.79,0,0,0-1.09,4.08,45,45,0,0,0-.25,5.1v16.11h-5.78V72H416Z"/></svg>