<svg id="Layer_1" data-name="Layer 1" xmlns="http://www.w3.org/2000/svg" viewBox="0 0 631.21 92.31"><defs><style>.cls-1{fill:#757576;}.cls-2{fill:#fff;}</style></defs><path class="cls-1" d="M162.13,72.72c2.45-5.79,3.67-8.69,6.11-14.49h31.61c.25-.77.49-1.49.72-2.17l2.18-6.57.19-.58L204.25,45V34.07L200.64,45h-26.8L180,30.47H209l1.38-4.15.17-.51.41-1.23.37-1.13.25-.75c.09-.28.19-.57.28-.86l.63-1.9h0l.91-2.74V6.31L209.83,17.2H166.07Q152,46.15,138,75.11h-5.29V86h57.94l2-6.06.33-1,.28-.86.15-.43.36-1.09c.38-1.16.79-2.4,1.27-3.84V61.83l-3.61,10.89Z"/><path class="cls-1" d="M224.76,72.72Q230,51.6,235.31,30.47H264.4l.81-5.08c.32-2,.61-3.83,1-6.12l.09-.58c.07-.48.15-1,.24-1.49V6.31L264.78,17.2H219.14L201,75.11h-3.41V86h57.95l.23-1.44c.7-4.39,1.12-7,1.88-11.84V61.83l-1.73,10.89Z"/><path class="cls-1" d="M319.58,17.2H300.09q-.7,13.88-1.4,27.76h-9.14q1.08-13.89,2.15-27.76V6.31l-.84,10.89H272.21q-4.06,29-8.15,57.91h-1.53V86h23.84l2.15-27.75H298q-.42,8.43-.85,16.87h-.54V86h23.83V75.11h-.14Q320,46.15,319.58,17.2Z"/><path class="cls-1" d="M372.59,17.2h-47L325.2,6.31V17.2L327.35,86h23.84V75.11h-1l-1.59-16.87h9.5q1.68,13.87,3.37,27.75h23.84V75.11h-2ZM347.31,45c-.54-5.8-.82-8.69-1.36-14.49h8.74c.71,5.8,1.06,8.69,1.77,14.49Z"/><path class="cls-1" d="M417.52,45l-3.2-10.89V45l8.16,27.76h-9.91Q406.93,51.6,401.3,30.47h29.09V19.59h-3.88l-.86-2.39H380.49L378.28,6.31V17.2l14,68.79h58L435.56,45Z"/><path class="cls-1" d="M160.44,6.31,155,17.2H141l-7.52,13.27H126L117.42,45H101.83c3.69-5.8,5.53-8.69,9.21-14.49V19.59l-6.92,10.88h-.54l8.76-13.27V6.31L105.16,17.2H92.85L51,75.11H43.13V86H67l18.3-27.75h8.11c-.84,1.33-1.59,2.5-2.29,3.59H84.17V72.72h16.88l8.54-14.48h8.11q-4.78,8.43-9.56,16.87H102V86h23.84Q143.12,51.6,160.44,17.2Z"/><polygon class="cls-1" points="450.22 86 450.22 75.11 446.5 75.11 450.22 86"/><path class="cls-1" d="M509.38,75.11,478.73,17.2H435.44L431.35,6.31V17.2l25.72,68.49h0l.11.31h57.94V75.11ZM456.66,30.47h8.75l19.68,42.25H475.2Z"/><path class="cls-1" d="M580.21,75.11,538.36,17.2H526.05L518.87,6.31V17.2Q528,31.08,537.18,45H536l-2.51-4h-6.65c-2.23-3.5-4-6.21-6.71-10.54h-8.24l-8.1-13.27H490.3l-6-10.89V17.2Q503.17,51.6,522,86h23.83V75.11h-6.64Q532.1,63.5,525,51.9h8.52l9.2,14.48h8.58L564.24,86h23.83V75.11Z"/><path class="cls-2" d="M103.58,19.59H111c-3.68,5.79-5.52,8.69-9.21,14.48h15.59L126,19.59h7.46L141,6.31h19.49q-17.33,34.39-34.63,68.8H102q7.86-13.89,15.73-27.76h-8.11l-8.54,14.48H84.17l9.21-14.48H85.27L67,75.11H43.13L92.85,6.31h19.49C108.84,11.62,107.08,14.27,103.58,19.59Z"/><path class="cls-2" d="M162.13,61.83H195l-4.4,13.28H132.69q16.69-34.41,33.38-68.8h47.37L209,19.59H180l-6.12,14.48h30.41l-4.4,13.28H168.24C165.8,53.14,164.58,56,162.13,61.83Z"/><path class="cls-2" d="M197.62,75.11h0l21.53-68.8h47.38c-.85,5.31-1.27,8-2.12,13.28H235.31Q230,40.71,224.76,61.83h32.91c-.84,5.31-1.26,8-2.11,13.28Z"/><path class="cls-2" d="M298,47.35h-9.5q-1.08,13.88-2.15,27.76H262.53l9.68-68.8H291.7q-1.08,13.88-2.15,27.76h9.14q.71-13.87,1.4-27.76h19.49q.44,34.39.88,68.8H296.63Z"/><path class="cls-2" d="M361.44,75.11l-3.37-27.76h-9.5q1.31,13.88,2.62,27.76H327.35L325.2,6.31h47.39l12.69,68.8Zm-6.75-55.52H346c.54,5.79.82,8.69,1.36,14.48h9.15C355.75,28.28,355.4,25.38,354.69,19.59Z"/><path class="cls-2" d="M392.28,75.11h0q-7-34.41-14-68.8h47.37c1.9,5.31,2.85,8,4.74,13.28H401.3q5.64,21.12,11.27,42.24h9.91l-8.16-27.76h21.24l14.66,41Z"/><path class="cls-2" d="M457.09,74.8h0L431.35,6.31h47.38l36.41,68.8H457.2Zm18.11-13h9.89L465.41,19.59h-8.75Z"/><path class="cls-2" d="M538.36,6.31l49.71,68.8H564.24L551.31,55.5h-8.58L533.53,41H525l20.82,34.1H522L484.34,6.31h19.49l8.1,13.28h8.24l9.22,14.48h7.79L518.87,6.31Z"/></svg>